<svg width="42" height="40" viewBox="0 0 42 40" fill="none" xmlns="http://www.w3.org/2000/svg">
<g id="field">
<path id="Shape" fill-rule="evenodd" clip-rule="evenodd" d="M41.2113 26.7903L32.2758 21.7044V19.6177H33.7416C35.4812 19.6177 36.8965 18.1969 36.8965 16.4506V15.7485C36.8965 15.1129 36.3814 14.5958 35.7483 14.5958H34.215C33.4843 14.5958 32.8113 14.8472 32.2758 15.2675C32.2758 15.2675 32.2619 11.1233 32.2376 10.9297H34.5621C35.476 10.9297 36.3596 10.7357 37.1883 10.353C37.4934 10.2123 37.6268 9.8498 37.4865 9.54372C37.3464 9.23756 36.9855 9.10356 36.6804 9.24432C36.0121 9.55284 35.2994 9.70929 34.5621 9.70929H32.2758V8.77389C32.2758 5.96377 34.5533 3.67753 37.3526 3.67753H39.639V4.61285C39.639 5.76272 39.2654 6.84873 38.5585 7.7537C38.3513 8.01894 38.3976 8.40247 38.6617 8.61043C38.926 8.81831 39.308 8.77193 39.5152 8.50678C40.3916 7.38481 40.8547 6.03829 40.8547 4.61285V3.50675C40.8547 2.92811 40.3856 2.45728 39.8092 2.45728H37.3526C34.0147 2.45728 31.2768 5.08011 31.0735 8.38034C30.2161 7.42419 28.9745 6.8218 27.5951 6.8218H25.6522C25.1227 6.8218 24.6918 7.25423 24.6918 7.78592V9.19444C24.6918 11.7853 26.7915 13.8931 29.3724 13.8931H31.06V21.0126L21.5908 15.6228V14.3353H22.4575C23.5743 14.3353 24.4829 13.4232 24.4829 12.302V11.6997C24.4829 11.0609 23.9652 10.5413 23.329 10.5413H22.4006C22.0666 10.5413 21.7517 10.6233 21.4738 10.7676C21.1943 9.98006 20.4445 9.4146 19.5653 9.4146H18.6369C18.0006 9.4146 17.4829 9.93434 17.4829 10.5731V11.1754C17.4829 12.2965 18.3916 13.2086 19.5084 13.2086H20.3751V13.7251V15.7037L9.62659 21.8216V19.6575V18.9036H10.4724C11.9168 18.9036 13.0918 17.724 13.0918 16.2741V15.5602C13.0918 14.9444 12.5927 14.4434 11.9793 14.4434H11.0304C10.0168 14.4434 9.13657 15.0246 8.70117 15.8721C8.07686 15.2034 7.1901 14.7843 6.20723 14.7843H5.287C4.66804 14.7843 4.16448 15.2898 4.16448 15.9112V16.835C4.16448 18.7278 5.69849 20.2677 7.58392 20.2677H8.41094V22.5135L6.04108 23.8624C5.74898 24.0286 5.64653 24.401 5.81212 24.6943C5.9777 24.9874 6.34874 25.0902 6.64076 24.9241L8.41102 23.9165V27.8763C8.41102 28.2134 8.6831 28.4865 9.01888 28.4865C9.35467 28.4865 9.62675 28.2134 9.62675 27.8763V23.2245L11.8933 21.9344L19.7912 26.4298L9.76939 32.1341L1.97625 27.5791L4.18118 26.3241C4.47328 26.1579 4.57572 25.7855 4.41014 25.4922C4.24448 25.199 3.87343 25.0962 3.5815 25.2624L0.897008 26.7903C0.617876 26.9492 0.443217 27.2481 0.441434 27.5703C0.439651 27.8924 0.610825 28.1932 0.888173 28.3552L9.46287 33.3671L9.46457 33.368L20.6019 39.8777C20.7413 39.9593 20.8977 40 21.0541 40C21.2105 40 21.367 39.9593 21.5064 39.8777L36.0124 31.3991C36.3025 31.2296 36.4007 30.856 36.2318 30.5648C36.0628 30.2735 35.6905 30.1747 35.4007 30.3444L32.3088 32.1516L22.2561 26.4297L30.1846 21.9168L31.0601 22.4152V27.0222C31.0601 27.3593 31.3322 27.6324 31.668 27.6324C32.0038 27.6324 32.2758 27.3593 32.2758 27.0222V23.1073L40.1321 27.579L37.8322 28.9233C37.5421 29.0929 37.4438 29.4665 37.6127 29.7577C37.7257 29.9524 37.9293 30.061 38.1386 30.061C38.2424 30.061 38.3477 30.0343 38.4439 29.978L41.2202 28.3552C41.4976 28.1932 41.6687 27.8924 41.6669 27.5703C41.6651 27.2481 41.4905 26.9492 41.2113 26.7903ZM34.215 15.8162H35.6808V16.4506C35.6808 17.524 34.8109 18.3973 33.7416 18.3973H32.2758V17.763C32.2758 16.6896 33.1458 15.8162 34.215 15.8162ZM25.9077 9.19428C25.9077 11.1122 27.4621 12.6725 29.3726 12.6725H31.0601V11.5205C31.0601 9.60255 29.5057 8.04213 27.5951 8.04213H25.9077V9.19428ZM9.62675 17.0727C9.62675 16.2957 10.2565 15.6636 11.0304 15.6636H11.8763V16.274C11.8763 17.051 11.2465 17.683 10.4726 17.683H9.62675V17.0727ZM5.38029 16.8349C5.38029 18.0547 6.36884 19.0471 7.584 19.0471H8.41102V18.2168C8.41102 16.9969 7.42247 16.0046 6.20731 16.0046H5.38029V16.8349ZM22.4008 11.7615H23.2675V12.3019C23.2675 12.7501 22.9043 13.1147 22.4578 13.1147H21.5911V12.5743C21.591 12.126 21.9543 11.7615 22.4008 11.7615ZM18.6988 10.6347V11.1752C18.6988 11.6234 19.062 11.988 19.5085 11.988H20.3752V11.4476C20.3752 10.9994 20.012 10.6347 19.5655 10.6347H18.6988ZM31.0928 32.8625L21.0543 38.73L10.9855 32.8448L21.0237 27.1313L31.0928 32.8625ZM13.1257 21.2328L21.0236 25.7283L28.9522 21.2155L21.5911 17.0256V21.2328C21.5911 21.5699 21.319 21.843 20.9832 21.843C20.6474 21.843 20.3753 21.5699 20.3753 21.2328V17.1065L13.1257 21.2328Z" fill="white"/>
<path id="Shape_2" fill-rule="evenodd" clip-rule="evenodd" d="M19.5098 34.2589H20.3765V35.6522C20.3765 35.9892 20.6486 36.2624 20.9844 36.2624C21.3202 36.2624 21.5922 35.9892 21.5922 35.6522V34.2589H22.362C23.4145 34.2589 24.2707 33.3995 24.2707 32.343V31.804C24.2707 31.2466 23.8189 30.7931 23.2636 30.7931H22.2851C21.8462 30.7931 21.4418 30.943 21.1191 31.1938C20.7472 30.7486 20.1895 30.4648 19.5668 30.4648H18.6383C18.002 30.4648 17.4844 30.9846 17.4844 31.6233V32.2257C17.4844 33.3468 18.393 34.2589 19.5098 34.2589ZM22.2851 32.0136H23.0549V32.3431C23.0549 32.7266 22.7441 33.0386 22.362 33.0386H21.5922V32.7092C21.5922 32.3256 21.9031 32.0136 22.2851 32.0136ZM19.5668 31.6853H18.7001V32.2257C18.7001 32.674 19.0633 33.0385 19.5098 33.0385H20.3765V32.4981C20.3765 32.0498 20.0133 31.6853 19.5668 31.6853Z" fill="white"/>
<path id="Shape_3" fill-rule="evenodd" clip-rule="evenodd" d="M5.57742 3.27762C5.30177 4.45524 4.24725 5.33491 2.99124 5.33491C1.52605 5.33491 0.333984 4.13826 0.333984 2.66742C0.333984 1.19657 1.52605 0 2.99124 0C4.24725 0 5.30177 0.879592 5.5775 2.05729H9.01923C9.18052 2.05729 9.33507 2.12157 9.44911 2.23596L15.9318 8.74361C16.1692 8.98191 16.1692 9.36821 15.9318 9.6066C15.813 9.72571 15.6574 9.78527 15.5019 9.78527C15.3464 9.78527 15.1908 9.72571 15.072 9.6066L8.76741 3.27762H5.57742ZM4.43269 2.66742C4.43269 1.86959 3.78609 1.22041 2.99124 1.22041C2.1964 1.22041 1.54971 1.86951 1.54971 2.66742C1.54971 3.4654 2.1964 4.1145 2.99124 4.1145C3.786 4.1145 4.43269 3.4654 4.43269 2.66742Z" fill="white"/>
<path id="Path" d="M9.02 6.64642H5.70552C5.36974 6.64642 5.09766 6.91955 5.09766 7.25663C5.09766 7.59371 5.36974 7.86684 5.70552 7.86684H9.02008C9.35587 7.86684 9.62795 7.59371 9.62795 7.25663C9.62795 6.91955 9.35579 6.64642 9.02 6.64642Z" fill="white"/>
<path id="Path_2" d="M9.02015 9.17847H2.102C1.76622 9.17847 1.49414 9.4516 1.49414 9.78867C1.49414 10.1258 1.76622 10.3989 2.102 10.3989H9.02015C9.35593 10.3989 9.62801 10.1258 9.62801 9.78867C9.62801 9.4516 9.35593 9.17847 9.02015 9.17847V9.17847Z" fill="white"/>
<path id="Path_3" d="M9.02015 11.7105H2.102C1.76622 11.7105 1.49414 11.9836 1.49414 12.3207C1.49414 12.6578 1.76622 12.9309 2.102 12.9309H9.02015C9.35593 12.9309 9.62801 12.6578 9.62801 12.3207C9.62801 11.9836 9.35593 11.7105 9.02015 11.7105Z" fill="white"/>
<path id="Path_4" d="M2.102 7.86684H3.51347C3.84925 7.86684 4.12133 7.59371 4.12133 7.25663C4.12133 6.91955 3.84925 6.64642 3.51347 6.64642H2.102C1.76622 6.64642 1.49414 6.91955 1.49414 7.25663C1.49414 7.59371 1.76622 7.86684 2.102 7.86684Z" fill="white"/>
</g>
</svg>
